<!--?xml version="1.0" standalone="no"?-->
              <svg id="sw-js-blob-svg" viewBox="0 0 100 100" xmlns="http://www.w3.org/2000/svg" version="1.1">
                    <defs> 
                        <linearGradient id="sw-gradient" x1="0" x2="1" y1="1" y2="0">
                            <stop id="stop1" stop-color="rgba(55, 140.118, 248, 1)" offset="0%"></stop>
                            <stop id="stop2" stop-color="rgba(31, 251, 239.82, 1)" offset="100%"></stop>
                        </linearGradient>
                    </defs>
                <path fill="url(#sw-gradient)" d="M15.2,-25.3C22.3,-22.3,32.3,-23.4,35.8,-19.8C39.3,-16.3,36.3,-8.2,34.9,-0.8C33.5,6.6,33.8,13.1,29.7,15.6C25.6,18,17,16.4,11.3,16.4C5.7,16.4,2.8,18.1,-2,21.5C-6.8,25,-13.6,30.2,-19.6,30.3C-25.6,30.5,-30.8,25.6,-31.1,19.7C-31.4,13.8,-26.9,6.9,-21.7,3C-16.6,-1,-10.8,-1.9,-9.1,-5.6C-7.5,-9.3,-10.1,-15.7,-9.3,-22.3C-8.5,-28.9,-4.2,-35.7,-0.1,-35.6C4.1,-35.5,8.2,-28.3,15.2,-25.3Z" width="100%" height="100%" transform="translate(50 50)" stroke-width="0" style="transition: all 0.3s ease 0s;" stroke="url(#sw-gradient)"></path>
              </svg>