<!--?xml version="1.0" standalone="no"?-->
              <svg id="sw-js-blob-svg" viewBox="0 0 100 100" xmlns="http://www.w3.org/2000/svg" version="1.1">
                    <defs> 
                        <linearGradient id="sw-gradient" x1="0" x2="1" y1="1" y2="0">
                            <stop id="stop1" stop-color="rgba(55, 140.118, 248, 1)" offset="0%"></stop>
                            <stop id="stop2" stop-color="rgba(31, 251, 239.82, 1)" offset="100%"></stop>
                        </linearGradient>
                    </defs>
                <path fill="url(#sw-gradient)" d="M12.4,-20.2C17.3,-18.7,23.3,-17.8,26.8,-14.6C30.3,-11.3,31.2,-5.6,32.1,0.5C32.9,6.7,33.8,13.3,32.3,20.1C30.9,26.9,27.2,33.8,21.4,31.8C15.7,29.8,7.8,18.9,1.1,16.9C-5.6,15,-11.2,22,-16.5,23.8C-21.8,25.5,-26.8,21.9,-32.3,17.1C-37.8,12.3,-43.8,6.1,-44.5,-0.4C-45.1,-6.9,-40.4,-13.7,-32.5,-14.5C-24.7,-15.3,-13.7,-9.9,-7.7,-10.8C-1.8,-11.6,-0.9,-18.7,1.4,-21.2C3.8,-23.7,7.6,-21.7,12.4,-20.2Z" width="100%" height="100%" transform="translate(50 50)" stroke-width="0" style="transition: all 0.3s ease 0s;" stroke="url(#sw-gradient)"></path>
              </svg>